<mxfile host="app.diagrams.net" agent="Mozilla/5.0 (X11; Linux x86_64; rv:128.0) Gecko/20100101 Firefox/128.0" version="26.0.4">
  <diagram name="Page-1" id="EMa1pMTZzpA0k4Gmwb4X">
    <mxGraphModel dx="1434" dy="1816" grid="1" gridSize="10" guides="1" tooltips="1" connect="1" arrows="1" fold="1" page="1" pageScale="1" pageWidth="827" pageHeight="1169" math="0" shadow="0">
      <root>
        <mxCell id="0" />
        <mxCell id="1" parent="0" />
        <mxCell id="xk-oOxLGbY3HGCxId3EP-5" value="" style="rounded=0;whiteSpace=wrap;html=1;fillColor=#dae8fc;strokeColor=#6c8ebf;strokeWidth=2;" parent="1" vertex="1">
          <mxGeometry x="270" y="120" width="60" height="140" as="geometry" />
        </mxCell>
        <mxCell id="xk-oOxLGbY3HGCxId3EP-6" value="" style="rounded=0;whiteSpace=wrap;html=1;fillColor=#dae8fc;strokeColor=#6c8ebf;strokeWidth=2;" parent="1" vertex="1">
          <mxGeometry x="270" y="260" width="60" height="140" as="geometry" />
        </mxCell>
        <mxCell id="xk-oOxLGbY3HGCxId3EP-7" value="" style="rounded=0;whiteSpace=wrap;html=1;fillColor=#dae8fc;strokeColor=#6c8ebf;strokeWidth=2;" parent="1" vertex="1">
          <mxGeometry x="270" y="400" width="60" height="140" as="geometry" />
        </mxCell>
        <mxCell id="xk-oOxLGbY3HGCxId3EP-8" value="" style="rounded=0;whiteSpace=wrap;html=1;fillColor=#dae8fc;strokeColor=#6c8ebf;strokeWidth=2;" parent="1" vertex="1">
          <mxGeometry x="270" y="540" width="60" height="140" as="geometry" />
        </mxCell>
        <mxCell id="xk-oOxLGbY3HGCxId3EP-2" value="&lt;font style=&quot;font-size: 14px;&quot; color=&quot;#a51d2d&quot;&gt;&lt;b&gt;TÂ°&lt;/b&gt;&lt;/font&gt;" style="rounded=0;whiteSpace=wrap;html=1;fillColor=#f8cecc;strokeColor=#b85450;strokeWidth=2;" parent="1" vertex="1">
          <mxGeometry x="280" y="130" width="40" height="40" as="geometry" />
        </mxCell>
        <mxCell id="xk-oOxLGbY3HGCxId3EP-3" value="&lt;font color=&quot;#a51d2d&quot;&gt;&lt;b&gt;Hum&lt;/b&gt;&lt;/font&gt;" style="rounded=0;whiteSpace=wrap;html=1;fillColor=#f8cecc;strokeColor=#b85450;strokeWidth=2;" parent="1" vertex="1">
          <mxGeometry x="280" y="170" width="40" height="40" as="geometry" />
        </mxCell>
        <mxCell id="xk-oOxLGbY3HGCxId3EP-4" value="&lt;font color=&quot;#a51d2d&quot;&gt;&lt;b&gt;Sun&lt;/b&gt;&lt;/font&gt;" style="rounded=0;whiteSpace=wrap;html=1;fillColor=#f8cecc;strokeColor=#b85450;strokeWidth=2;" parent="1" vertex="1">
          <mxGeometry x="280" y="210" width="40" height="40" as="geometry" />
        </mxCell>
        <mxCell id="xk-oOxLGbY3HGCxId3EP-9" value="" style="rounded=0;whiteSpace=wrap;html=1;fillColor=#f8cecc;strokeColor=#b85450;strokeWidth=2;" parent="1" vertex="1">
          <mxGeometry x="280" y="270" width="40" height="40" as="geometry" />
        </mxCell>
        <mxCell id="xk-oOxLGbY3HGCxId3EP-10" value="" style="rounded=0;whiteSpace=wrap;html=1;fillColor=#f8cecc;strokeColor=#b85450;strokeWidth=2;" parent="1" vertex="1">
          <mxGeometry x="280" y="310" width="40" height="40" as="geometry" />
        </mxCell>
        <mxCell id="xk-oOxLGbY3HGCxId3EP-11" value="" style="rounded=0;whiteSpace=wrap;html=1;fillColor=#f8cecc;strokeColor=#b85450;strokeWidth=2;" parent="1" vertex="1">
          <mxGeometry x="280" y="350" width="40" height="40" as="geometry" />
        </mxCell>
        <mxCell id="xk-oOxLGbY3HGCxId3EP-12" value="" style="rounded=0;whiteSpace=wrap;html=1;fillColor=#f8cecc;strokeColor=#b85450;strokeWidth=2;" parent="1" vertex="1">
          <mxGeometry x="280" y="490" width="40" height="40" as="geometry" />
        </mxCell>
        <mxCell id="xk-oOxLGbY3HGCxId3EP-13" value="" style="rounded=0;whiteSpace=wrap;html=1;fillColor=#f8cecc;strokeColor=#b85450;strokeWidth=2;" parent="1" vertex="1">
          <mxGeometry x="280" y="450" width="40" height="40" as="geometry" />
        </mxCell>
        <mxCell id="xk-oOxLGbY3HGCxId3EP-14" value="" style="rounded=0;whiteSpace=wrap;html=1;fillColor=#f8cecc;strokeColor=#b85450;strokeWidth=2;" parent="1" vertex="1">
          <mxGeometry x="280" y="410" width="40" height="40" as="geometry" />
        </mxCell>
        <mxCell id="xk-oOxLGbY3HGCxId3EP-15" value="" style="rounded=0;whiteSpace=wrap;html=1;fillColor=#f8cecc;strokeColor=#b85450;strokeWidth=2;" parent="1" vertex="1">
          <mxGeometry x="280" y="550" width="40" height="40" as="geometry" />
        </mxCell>
        <mxCell id="xk-oOxLGbY3HGCxId3EP-16" value="" style="rounded=0;whiteSpace=wrap;html=1;fillColor=#f8cecc;strokeColor=#b85450;strokeWidth=2;" parent="1" vertex="1">
          <mxGeometry x="280" y="590" width="40" height="40" as="geometry" />
        </mxCell>
        <mxCell id="xk-oOxLGbY3HGCxId3EP-17" value="" style="rounded=0;whiteSpace=wrap;html=1;fillColor=#f8cecc;strokeColor=#b85450;strokeWidth=2;" parent="1" vertex="1">
          <mxGeometry x="280" y="630" width="40" height="40" as="geometry" />
        </mxCell>
        <mxCell id="xk-oOxLGbY3HGCxId3EP-95" style="rounded=0;orthogonalLoop=1;jettySize=auto;html=1;entryX=0;entryY=0.5;entryDx=0;entryDy=0;endArrow=none;endFill=0;strokeWidth=2;fillColor=#dae8fc;strokeColor=#6c8ebf;" parent="1" source="xk-oOxLGbY3HGCxId3EP-91" target="xk-oOxLGbY3HGCxId3EP-5" edge="1">
          <mxGeometry relative="1" as="geometry" />
        </mxCell>
        <mxCell id="xk-oOxLGbY3HGCxId3EP-91" value="&lt;font color=&quot;#1a5fb4&quot;&gt;&lt;b&gt;&lt;font style=&quot;font-size: 14px;&quot;&gt;batch&lt;sub&gt;1&lt;/sub&gt;&lt;/font&gt;&lt;/b&gt;&lt;/font&gt;" style="text;html=1;align=center;verticalAlign=middle;whiteSpace=wrap;rounded=0;" parent="1" vertex="1">
          <mxGeometry x="180" y="175" width="60" height="30" as="geometry" />
        </mxCell>
        <mxCell id="xk-oOxLGbY3HGCxId3EP-96" style="rounded=0;orthogonalLoop=1;jettySize=auto;html=1;entryX=0;entryY=0.5;entryDx=0;entryDy=0;endArrow=none;endFill=0;strokeWidth=2;strokeColor=#6c8ebf;fillColor=#dae8fc;" parent="1" source="xk-oOxLGbY3HGCxId3EP-92" target="xk-oOxLGbY3HGCxId3EP-6" edge="1">
          <mxGeometry relative="1" as="geometry" />
        </mxCell>
        <mxCell id="xk-oOxLGbY3HGCxId3EP-92" value="&lt;font color=&quot;#1a5fb4&quot;&gt;&lt;b&gt;&lt;font style=&quot;font-size: 14px;&quot;&gt;batch&lt;sub&gt;2&lt;/sub&gt;&lt;/font&gt;&lt;/b&gt;&lt;/font&gt;" style="text;html=1;align=center;verticalAlign=middle;whiteSpace=wrap;rounded=0;" parent="1" vertex="1">
          <mxGeometry x="180" y="315" width="60" height="30" as="geometry" />
        </mxCell>
        <mxCell id="xk-oOxLGbY3HGCxId3EP-97" style="rounded=0;orthogonalLoop=1;jettySize=auto;html=1;entryX=0;entryY=0.5;entryDx=0;entryDy=0;endArrow=none;endFill=0;strokeWidth=2;strokeColor=#6c8ebf;fillColor=#dae8fc;" parent="1" source="xk-oOxLGbY3HGCxId3EP-93" target="xk-oOxLGbY3HGCxId3EP-7" edge="1">
          <mxGeometry relative="1" as="geometry" />
        </mxCell>
        <mxCell id="xk-oOxLGbY3HGCxId3EP-93" value="&lt;font color=&quot;#1a5fb4&quot;&gt;&lt;b&gt;&lt;font style=&quot;font-size: 14px;&quot;&gt;batch&lt;sub&gt;3&lt;/sub&gt;&lt;/font&gt;&lt;/b&gt;&lt;/font&gt;" style="text;html=1;align=center;verticalAlign=middle;whiteSpace=wrap;rounded=0;" parent="1" vertex="1">
          <mxGeometry x="180" y="455" width="60" height="30" as="geometry" />
        </mxCell>
        <mxCell id="xk-oOxLGbY3HGCxId3EP-98" style="rounded=0;orthogonalLoop=1;jettySize=auto;html=1;entryX=0;entryY=0.5;entryDx=0;entryDy=0;endArrow=none;endFill=0;strokeWidth=2;strokeColor=#6c8ebf;fillColor=#dae8fc;" parent="1" source="xk-oOxLGbY3HGCxId3EP-94" target="xk-oOxLGbY3HGCxId3EP-8" edge="1">
          <mxGeometry relative="1" as="geometry" />
        </mxCell>
        <mxCell id="xk-oOxLGbY3HGCxId3EP-94" value="&lt;font color=&quot;#1a5fb4&quot;&gt;&lt;b&gt;&lt;font style=&quot;font-size: 14px;&quot;&gt;batch&lt;sub&gt;4&lt;/sub&gt;&lt;/font&gt;&lt;/b&gt;&lt;/font&gt;" style="text;html=1;align=center;verticalAlign=middle;whiteSpace=wrap;rounded=0;" parent="1" vertex="1">
          <mxGeometry x="180" y="595" width="60" height="30" as="geometry" />
        </mxCell>
      </root>
    </mxGraphModel>
  </diagram>
</mxfile>
